<?xml version="1.0" standalone="no"?>
<!DOCTYPE svg PUBLIC "-//W3C//DTD SVG 20010904//EN"
 "http://www.w3.org/TR/2001/REC-SVG-20010904/DTD/svg10.dtd">
<svg version="1.0" xmlns="http://www.w3.org/2000/svg"
 width="715.000000pt" height="715.000000pt" viewBox="0 0 715.000000 715.000000"
 preserveAspectRatio="xMidYMid meet">

<g transform="translate(0.000000,715.000000) scale(0.100000,-0.100000)"
fill="#000000" stroke="none">
<path d="M3567 6203 c-4 -3 -7 -422 -7 -930 l0 -923 -925 0 -925 0 0 -930 0
-930 930 0 930 0 0 930 0 930 925 0 925 0 0 930 0 930 -923 0 c-508 0 -927 -3
-930 -7z"/>
<path d="M4200 1510 l0 -360 75 0 75 0 0 360 0 360 -75 0 -75 0 0 -360z"/>
<path d="M4410 1510 l0 -360 70 0 70 0 0 360 0 360 -70 0 -70 0 0 -360z"/>
<path d="M1937 1686 c-22 -8 -49 -24 -62 -36 l-23 -22 -4 28 c-3 28 -5 29 -70
32 l-68 3 0 -376 0 -375 70 0 70 0 0 132 0 131 23 -20 c38 -35 70 -46 127 -46
138 0 220 103 223 278 1 130 -41 217 -125 261 -43 22 -117 27 -161 10z m77
-127 c38 -18 61 -73 60 -150 0 -102 -36 -148 -115 -149 -41 0 -51 4 -78 35
-32 37 -37 60 -32 145 7 105 80 157 165 119z"/>
<path d="M2475 1686 c-17 -7 -43 -27 -57 -45 l-27 -31 -3 37 -3 38 -65 0 -65
0 -3 -267 -2 -268 74 0 75 0 3 175 c3 164 4 176 25 196 15 16 38 24 77 27 l56
4 0 74 0 74 -27 0 c-16 -1 -42 -7 -58 -14z"/>
<path d="M2715 1684 c-143 -52 -203 -260 -123 -421 30 -60 76 -99 140 -118
204 -60 368 63 368 277 0 112 -58 214 -144 254 -60 28 -175 32 -241 8z m180
-126 c37 -29 55 -76 55 -143 0 -107 -53 -171 -135 -161 -99 12 -146 155 -89
268 29 57 118 76 169 36z"/>
<path d="M3364 1693 c-12 -2 -40 -20 -63 -39 l-41 -36 0 37 0 36 -67 -3 -68
-3 -3 -373 -2 -373 72 3 73 3 3 129 3 129 27 -26 c39 -37 98 -50 163 -36 73
16 140 81 163 158 20 70 20 172 0 242 -33 111 -143 175 -260 152z m75 -139
c32 -23 51 -74 51 -139 0 -103 -39 -155 -116 -155 -79 0 -121 63 -111 169 6
70 23 108 56 126 35 19 92 18 120 -1z"/>
<path d="M3825 1684 c-57 -21 -121 -88 -141 -147 -19 -59 -22 -174 -4 -237 18
-67 89 -133 164 -155 132 -39 264 15 311 128 l15 37 -74 0 c-61 0 -77 -3 -88
-18 -45 -64 -153 -50 -184 23 -28 67 -33 65 166 65 l180 0 0 63 c0 76 -41 169
-90 206 -68 50 -174 65 -255 35z m166 -135 c16 -17 29 -42 29 -55 0 -24 -1
-24 -100 -24 l-100 0 0 26 c0 15 12 38 29 55 42 42 102 41 142 -2z"/>
<path d="M4725 1677 c-91 -43 -133 -114 -142 -237 -10 -138 31 -226 131 -278
42 -22 64 -27 126 -27 99 0 161 29 208 99 47 71 44 76 -37 76 -64 0 -72 -2
-99 -30 -44 -44 -102 -42 -148 4 -24 24 -34 43 -34 65 l0 31 181 0 182 0 -6
68 c-13 158 -94 241 -242 249 -59 3 -78 0 -120 -20z m174 -124 c17 -16 33 -40
37 -55 l6 -28 -106 0 c-70 0 -106 4 -106 11 0 24 32 77 53 87 41 20 85 14 116
-15z"/>
<path d="M5345 1686 c-17 -7 -43 -27 -57 -45 l-27 -31 -3 37 -3 38 -67 3 -68
3 0 -271 0 -270 70 0 70 0 0 138 c1 217 16 252 114 260 l56 4 0 74 0 74 -27 0
c-16 -1 -42 -7 -58 -14z"/>
</g>
</svg>
